<?xml version="1.0" encoding="utf-8"?>
<!-- Generator: Adobe Illustrator 16.0.0, SVG Export Plug-In . SVG Version: 6.00 Build 0)  -->
<!DOCTYPE svg PUBLIC "-//W3C//DTD SVG 1.1//EN" "http://www.w3.org/Graphics/SVG/1.1/DTD/svg11.dtd">
<svg version="1.1" id="Layer_1" xmlns="http://www.w3.org/2000/svg" xmlns:xlink="http://www.w3.org/1999/xlink" x="0px" y="0px"
	 width="72px" height="72px" viewBox="0 0 72 72" enable-background="new 0 0 72 72" xml:space="preserve">
<path d="M58.085,67.5C52.168,71.485,45.239,72,38.301,72H4.851V0h29.573c1.939,0,3.877,0,5.713,0.104
	c7.439,0.303,15.398,1.225,20.298,7.751c1.429,1.839,3.467,5.207,3.467,10.612c0,9.379-6.215,13.36-9.388,14.789
	c-1.735,0.714-2.752,1.021-6.02,1.735c1.021,0.1,1.938,0.307,2.856,0.506c8.461,1.527,11.932,5.397,13.663,8.968
	c0.615,1.229,1.636,3.886,1.636,7.44C66.649,55.062,65.637,62.518,58.085,67.5z M41.564,13.971
	c-0.917-0.307-2.038-0.511-4.081-0.511H21.985v14.992h13.56c0.104,0,2.652-0.104,4.072-0.307c4.082-0.714,5.41-2.549,6.021-4.185
	c0.204-0.511,0.614-1.731,0.614-3.367C46.26,19.074,45.953,15.399,41.564,13.971z M43.4,42.216
	c-1.324-0.507-2.753-0.714-5.812-0.714H21.985v17.445h12.539c6.423,0,9.582-0.714,11.932-3.172c0.814-0.913,1.939-2.541,1.939-5.505
	C48.395,44.973,45.442,42.93,43.4,42.216z"/>
</svg>
