<?xml version="1.0" encoding="utf-8"?>
<!-- Generator: Adobe Illustrator 16.0.0, SVG Export Plug-In . SVG Version: 6.00 Build 0)  -->
<!DOCTYPE svg PUBLIC "-//W3C//DTD SVG 1.1//EN" "http://www.w3.org/Graphics/SVG/1.1/DTD/svg11.dtd">
<svg version="1.1" id="Layer_1" xmlns="http://www.w3.org/2000/svg" xmlns:xlink="http://www.w3.org/1999/xlink" x="0px" y="0px"
	 width="72px" height="72px" viewBox="0 0 72 72" enable-background="new 0 0 72 72" xml:space="preserve">
<path d="M62.491,60.846c-3.084,3.468-11.541,11.153-24.808,11.153c-2.403,0-7.984-0.297-13.842-2.896
	C5.961,61.042,5.096,41.334,5.096,35.949c0-4.141,0.481-14.809,8.261-24.225C16.437,7.885,24.123,0,37.965,0
	c9.138,0,17.975,3.749,23.931,10.57c2.505,2.884,4.039,5.866,4.712,7.013l-13.36,6.633c-0.959-1.921-1.636-2.978-2.211-3.749
	c-1.248-1.828-5.385-6.531-12.304-6.531c-1.922,0-6.442,0.383-10.281,4.039c-2.79,2.599-6.445,8.265-6.445,17.591
	c0,0.869,0,2.504,0.29,4.618c1.155,9.322,5.186,13.549,8.935,15.67c1.252,0.774,3.839,1.926,7.502,1.926
	c9.521,0,13.169-7.412,14.706-10.003l13.467,6.825C64.886,57.676,63.445,59.695,62.491,60.846z"/>
</svg>
