<?xml version="1.0" encoding="utf-8"?>
<!-- Generator: Adobe Illustrator 16.0.0, SVG Export Plug-In . SVG Version: 6.00 Build 0)  -->
<!DOCTYPE svg PUBLIC "-//W3C//DTD SVG 1.1//EN" "http://www.w3.org/Graphics/SVG/1.1/DTD/svg11.dtd">
<svg version="1.1" id="Layer_1" xmlns="http://www.w3.org/2000/svg" xmlns:xlink="http://www.w3.org/1999/xlink" x="0px" y="0px"
	 width="72px" height="72px" viewBox="0 0 72 72" enable-background="new 0 0 72 72" xml:space="preserve">
<path d="M59.996,61.486c-2.342,2.657-7.656,7.357-16.426,9.392C39.592,71.8,36.129,72,32.052,72H3.792V0h22.946
	c2.25,0,4.393,0,6.535,0.104C36.32,0.307,48.362,0.614,57.14,7.86c1.329,1.017,3.472,2.956,5.714,6.527
	c2.541,3.982,5.397,10.41,5.397,21.014C68.251,48.946,63.866,57.002,59.996,61.486z M46.128,21.097
	c-1.013-1.225-3.155-3.671-7.042-4.896c-3.355-1.125-6.428-1.021-9.882-1.021h-7.242V57.5h5.489c5.298,0,11.428-0.299,16.119-3.771
	c3.671-2.757,6.635-7.964,6.635-17.755C50.214,30.485,49.6,25.486,46.128,21.097z"/>
</svg>
