<?xml version="1.0" encoding="utf-8"?>
<!-- Generator: Adobe Illustrator 16.0.0, SVG Export Plug-In . SVG Version: 6.00 Build 0)  -->
<!DOCTYPE svg PUBLIC "-//W3C//DTD SVG 1.1//EN" "http://www.w3.org/Graphics/SVG/1.1/DTD/svg11.dtd">
<svg version="1.1" id="Layer_1" xmlns="http://www.w3.org/2000/svg" xmlns:xlink="http://www.w3.org/1999/xlink" x="0px" y="0px"
	 width="72px" height="72px" viewBox="0 0 72 72" enable-background="new 0 0 72 72" xml:space="preserve">
<path d="M54.744,70.46v-6.287c-1.839,1.65-3.284,2.806-4.149,3.379C44.229,71.812,37.369,72,34.666,72
	c-2.421,0-7.438-0.188-13.144-2.899C9.169,63.12,3.958,49.509,3.958,36.385c0-5.029,0.958-23.163,16.786-32.039
	C23.55,2.703,29.255,0,37.55,0c12.73,0,20.565,5.988,24.126,9.175c2.404,2.126,3.961,4.047,5.894,6.558l-12.935,7.823
	c-0.299-0.483-2.225-3.572-4.354-5.407c-4.338-3.961-9.556-4.153-11.473-4.153c-1.258,0-5.8,0.094-9.372,2.413
	c-4.055,2.609-8.487,8.585-8.487,19.497c0,1.454,0,11.002,4.731,16.794c1.729,2.122,4.039,3.277,4.923,3.757
	c1.257,0.581,4.338,1.839,8.205,1.839c1.155,0,3.269,0,5.878-0.864c1.352-0.487,5.501-2.13,7.528-6.271
	c1.068-2.122,1.352-5.021,1.446-5.604H38.414V32.629h29.627V70.46H54.744z"/>
</svg>
